<svg version="1.1" id="Layer_1" xmlns="http://www.w3.org/2000/svg" xmlns:xlink="http://www.w3.org/1999/xlink" x="0px" y="0px"
	 width="40" height="40" viewBox="0 0 1024 1024" enable-background="new 0 0 1024 1024" xml:space="preserve">
<path fill="#000000" opacity="1.000000" stroke="none" 
	d="
M678.961609,463.084839 
	C700.332397,500.027893 721.085754,536.913574 742.786926,573.232910 
	C771.838013,621.853210 800.339783,670.830627 832.265564,717.678772 
	C835.360535,722.220337 839.133301,726.237732 841.907776,731.040527 
	C845.068848,736.512512 844.989197,741.782776 842.031738,747.159485 
	C836.199707,757.762207 828.464111,766.974060 820.117249,775.576050 
	C780.314819,816.595032 735.802307,851.660339 686.054993,879.872742 
	C673.329285,887.089600 660.287354,893.895752 646.341187,898.647217 
	C643.507812,899.612488 640.657593,900.579468 637.748413,901.260803 
	C630.694580,902.912964 624.813599,901.192810 619.733582,895.667114 
	C587.140808,860.214661 553.704712,825.560791 520.102478,791.068176 
	C457.660919,726.971863 394.885529,663.205322 331.464722,600.075317 
	C316.467133,585.146484 302.258484,569.384766 286.734497,555.036682 
	C272.176483,541.581421 266.362091,524.872986 263.687103,506.073029 
	C260.263977,482.015106 257.837646,457.840912 254.613205,433.763977 
	C251.346161,409.368866 248.543427,384.898834 243.834396,360.722260 
	C237.694824,329.201233 230.956680,297.832550 221.398270,267.106995 
	C211.844070,236.394867 201.104752,206.138214 188.451813,176.572052 
	C180.650085,158.341751 171.876923,140.559204 162.373688,123.168083 
	C159.703979,118.282478 154.482513,115.120781 151.549698,110.189186 
	C149.579254,106.875854 147.632980,103.647125 147.627686,99.587112 
	C147.615204,90.022980 155.858246,83.927650 164.965302,86.820007 
	C168.596405,87.973228 171.680222,90.076881 173.772919,93.118401 
	C180.948624,103.547523 191.324051,110.417473 201.293549,117.534546 
	C246.186493,149.582916 294.192566,176.150360 344.524506,198.709793 
	C397.830994,222.602463 453.013855,241.240280 508.599884,258.843414 
	C526.229187,264.426331 543.599060,270.754822 560.984924,277.042267 
	C573.228882,281.470184 582.766724,288.931305 589.040588,300.525238 
	C599.823303,320.451447 610.702576,340.326416 621.682495,360.144714 
	C640.653503,394.386414 659.732544,428.568268 678.961609,463.084839 
M374.213531,543.644470 
	C381.903900,554.424622 387.588654,566.139954 391.796173,578.732361 
	C394.366547,586.425171 396.443054,594.431885 400.800964,601.427673 
	C405.396423,608.804871 409.614624,616.507446 416.595764,622.081726 
	C411.697815,615.792603 408.797607,608.236816 404.105164,601.944397 
	C399.068756,595.190796 396.947388,587.373779 393.924347,579.857788 
	C391.689545,574.301514 390.054840,568.484558 387.556427,563.058289 
	C384.156494,555.674194 380.689270,548.209778 373.793427,542.363586 
	C364.745605,531.214111 352.831116,523.738892 339.856689,518.595215 
	C329.815674,514.614563 320.706482,509.016022 311.258667,504.143799 
	C301.274536,498.994995 295.667877,489.002502 291.874603,478.378906 
	C291.298035,476.764160 291.062256,474.921356 288.882812,473.484161 
	C289.557068,479.529877 292.346710,484.115997 294.760925,488.745178 
	C299.562744,497.952667 306.968414,504.656494 315.871429,509.923004 
	C327.079132,516.552856 339.535767,520.469849 351.015808,526.537292 
	C359.484528,531.013184 366.644989,537.090881 374.213531,543.644470 
M629.999573,838.994019 
	C629.999573,838.994019 629.984192,838.970093 630.187988,839.627319 
	C634.265442,848.008667 642.372925,848.230713 649.874207,848.673706 
	C660.929993,849.326538 668.785522,853.260986 672.290894,864.619995 
	C674.972473,873.309509 680.805237,874.991211 688.727783,870.562805 
	C716.013733,855.310608 741.221436,837.051575 765.417236,817.368469 
	C770.328247,813.373413 775.617188,809.601807 779.690186,804.020020 
	C776.525818,803.564819 775.124756,807.025757 772.410034,806.067627 
	C772.495483,802.311707 782.454102,794.673462 786.823669,794.977173 
	C787.709961,793.253967 786.368408,792.153503 785.588806,790.986633 
	C782.999146,787.110718 780.273315,783.326050 777.673462,779.456848 
	C763.452148,758.292114 749.960938,736.692566 737.796021,714.256104 
	C725.647583,691.850159 714.733337,668.811890 702.692078,646.361877 
	C684.350464,612.165344 665.089050,578.477722 645.346375,545.070618 
	C639.178040,534.633179 633.262268,523.992920 624.998596,515.009216 
	C624.998596,515.009216 625.023132,515.042542 625.157837,514.340759 
	C625.733032,511.434082 625.510742,508.404846 623.438354,506.393555 
	C621.065430,504.090668 619.443542,501.429565 618.286865,498.530365 
	C614.572571,489.220398 606.909790,484.464752 598.258972,480.952393 
	C592.894653,478.774414 587.224609,478.384644 581.615234,480.186859 
	C576.679260,481.772736 573.513916,486.384613 573.207520,492.042114 
	C572.869263,498.287933 575.061035,502.121704 580.366455,504.492645 
	C581.942871,505.197083 584.050110,505.268829 584.101990,507.724274 
	C578.784729,509.795258 572.637024,506.506958 569.521240,499.963989 
	C568.136719,497.056610 566.928772,493.944366 568.239014,490.819153 
	C571.619385,482.756958 576.409668,475.988007 586.057495,473.933533 
	C580.442017,471.416443 575.978210,467.143219 569.377625,468.195526 
	C560.794434,469.563873 555.544922,463.633453 548.701111,458.586365 
	C554.449219,455.461670 559.217041,452.850220 564.003784,450.273956 
	C567.796936,448.232452 568.341187,442.138733 564.639648,439.849091 
	C554.876587,433.809906 545.083801,427.804626 533.856689,424.664581 
	C523.874878,421.872711 514.189880,421.231232 505.119873,427.464142 
	C500.014893,430.972229 497.812836,437.110992 499.496674,443.269897 
	C501.017365,448.832031 505.763550,452.399231 512.117371,452.901184 
	C513.678345,453.024475 515.454834,452.289764 516.801147,453.754639 
	C514.344055,456.658905 512.071167,457.407776 508.237915,456.610077 
	C495.553680,453.970612 490.431000,440.280457 498.030212,429.763428 
	C503.155548,422.670197 510.497314,419.772583 519.551880,418.117157 
	C518.188599,417.477112 517.647705,417.232117 517.114502,416.971558 
	C493.643188,405.502197 473.958710,389.315796 457.108612,369.428345 
	C443.325165,353.160278 429.923706,336.550690 415.154053,321.138580 
	C413.842773,319.770294 412.850464,317.797241 410.502563,317.783447 
	C408.645386,319.220367 408.167755,321.429169 407.104828,323.281799 
	C406.119415,324.999268 406.196381,327.484589 403.200928,328.705688 
	C403.448273,325.383087 403.580109,322.628357 403.872437,319.890778 
	C404.476044,314.238220 404.062042,313.832123 398.274170,313.304413 
	C395.533112,313.054535 392.468872,314.194336 389.367279,311.573761 
	C392.883240,310.698914 395.736786,309.968140 398.600922,309.281433 
	C402.425171,308.364441 403.474304,306.494385 401.409393,302.813354 
	C396.678497,294.379761 391.584137,286.179535 386.282288,278.100189 
	C385.060364,276.238190 383.440033,274.533813 383.241364,271.934418 
	C385.780151,272.094177 386.404541,274.032837 387.485870,275.361420 
	C393.268158,282.466156 398.610352,289.937408 405.045868,296.497162 
	C411.548615,303.125458 411.537659,303.098297 415.813751,295.071014 
	C416.600800,293.593567 416.977692,291.694336 418.990143,290.829956 
	C419.973267,293.876801 418.368225,296.330841 418.189545,298.937012 
	C417.735565,305.559204 417.826599,305.629089 424.442596,306.991791 
	C427.161713,307.551849 430.372437,306.839905 433.042480,309.403687 
	C428.243500,311.593964 422.962158,308.564819 418.132324,312.443146 
	C437.041199,343.132599 459.109100,370.770691 487.822815,392.812378 
	C486.071289,387.545044 485.298462,382.373016 485.689636,376.986877 
	C486.915649,360.106232 505.311157,350.393585 518.916992,359.485077 
	C526.483521,364.541077 528.746521,374.293549 524.058044,381.953918 
	C521.900085,385.479858 518.725525,387.384613 514.512634,387.275452 
	C511.083466,387.186646 508.433380,385.622925 506.687469,382.693848 
	C505.498779,380.699585 505.212372,378.516479 506.824127,376.634613 
	C508.015289,375.243927 509.514893,373.969482 511.343109,375.920868 
	C509.955841,380.715820 511.366913,383.729401 515.104980,383.371033 
	C518.568542,383.039001 521.487793,381.522766 521.923218,377.349518 
	C522.668335,370.208832 519.607666,364.140015 513.857971,361.635010 
	C507.280304,358.769318 499.854126,360.347473 495.176392,365.719208 
	C490.567352,371.012054 489.248627,377.227386 490.817657,383.941650 
	C493.702393,396.285889 502.456085,403.821655 512.869751,409.699860 
	C527.218384,417.799133 543.489929,421.652191 558.335510,429.302216 
	C556.954407,428.494507 555.573242,427.686798 553.926453,426.723694 
	C559.093872,421.744537 556.678040,417.800171 553.626465,414.223236 
	C556.734924,411.257141 558.451782,414.425323 560.615112,415.073364 
	C562.289795,412.937347 564.127380,411.152954 567.587524,410.813293 
	C568.499451,417.127014 572.820190,421.713104 575.214478,427.281372 
	C577.589294,432.804169 580.399292,438.140503 583.919617,442.988922 
	C587.404480,447.788513 588.970398,453.949005 594.154846,457.633087 
	C570.633911,422.880341 557.935608,385.087708 561.328430,342.599701 
	C558.358643,359.724670 558.620789,376.620056 562.729919,393.293396 
	C558.690063,394.442932 557.847900,391.915863 556.949829,389.888062 
	C553.017334,381.009155 547.492371,373.037384 542.376404,364.882507 
	C525.201111,337.505188 507.361725,310.557831 488.114136,284.571045 
	C484.521179,279.720093 480.639862,275.440125 474.922485,272.731445 
	C469.005402,269.928162 466.119385,263.880829 462.585846,258.677368 
	C462.120972,257.992828 462.359009,257.057556 463.315979,256.179626 
	C465.105713,255.823257 466.965179,256.608765 468.828094,257.221527 
	C474.206329,258.990509 479.553162,260.856110 484.942932,262.588470 
	C511.589172,271.152924 538.007629,280.336426 563.594910,291.745605 
	C570.577820,294.859222 576.405518,299.395477 580.372070,306.161591 
	C585.848206,315.502686 591.488403,324.748169 597.103149,334.007446 
	C611.263062,357.358459 623.360657,381.890442 637.810364,405.075928 
	C638.633667,406.396820 639.035767,408.097046 641.159119,408.068298 
	C641.332642,405.956299 640.225159,404.604095 639.446777,403.192078 
	C621.194092,370.082672 603.719055,336.546814 584.825562,303.787903 
	C579.074768,293.816742 570.892273,287.116669 560.136780,283.056549 
	C533.958313,273.174408 507.446747,264.301788 480.787537,255.820755 
	C441.259705,243.245834 402.248962,229.249374 364.014587,213.097000 
	C308.600891,189.687088 255.601425,161.914032 206.466415,127.034088 
	C205.532608,126.371208 204.702271,125.060722 202.489883,126.131218 
	C217.816528,138.393936 233.530823,149.343918 249.215103,160.263870 
	C248.390823,161.598068 247.504852,161.633133 246.778152,161.230240 
	C238.282578,156.520126 228.932877,153.386368 221.413177,146.851974 
	C217.093155,143.097992 211.943848,140.968536 205.512695,142.054169 
	C207.405655,147.885712 207.374390,154.712357 212.664566,157.784409 
	C217.550247,160.621567 220.623871,165.224625 225.269455,168.008087 
	C228.091583,169.699005 229.329987,172.492554 228.971222,175.107971 
	C228.509491,178.474091 230.021988,180.518356 231.786316,182.698807 
	C240.798599,193.836746 249.845337,204.946793 258.884521,216.062927 
	C286.632416,250.186508 314.455536,284.249298 342.104095,318.453156 
	C358.643219,338.913574 374.895966,359.605316 391.304657,380.171387 
	C402.523956,394.233276 413.811340,408.240845 425.016663,422.313812 
	C427.135468,424.974762 429.358521,425.924316 432.750153,424.523865 
	C435.820251,423.256104 439.183655,422.926392 442.566498,423.390656 
	C455.699677,425.192871 464.677856,437.890686 461.811584,450.651184 
	C458.802185,464.048828 446.177582,471.801544 433.512695,468.029358 
	C420.618622,464.188904 412.812897,449.196472 419.183838,437.241608 
	C423.296265,429.524658 420.943878,425.098846 416.176605,419.986664 
	C414.702667,418.406158 413.418671,416.646637 412.070831,414.950714 
	C356.809723,345.420197 301.564178,275.877350 246.272583,206.371094 
	C240.727905,199.400970 234.906113,192.651276 228.789673,185.289886 
	C224.950272,194.080032 225.070282,201.418640 230.223663,208.747696 
	C235.961304,216.907669 241.846313,225.079391 244.768234,234.823090 
	C245.850098,238.430817 247.732300,241.410126 250.194916,244.233780 
	C255.400269,250.202240 259.517700,256.884308 261.121399,264.746979 
	C262.340027,270.721802 265.253326,275.699097 269.498749,279.804626 
	C279.613434,289.585999 279.328156,301.450470 276.370483,313.690430 
	C275.307281,318.090363 274.351440,322.270905 274.488678,326.890625 
	C274.653778,332.447601 274.938934,338.526733 270.128754,342.705353 
	C264.130035,347.916473 262.942200,351.274567 265.736633,358.226196 
	C273.010010,376.319885 283.434479,392.327057 297.520752,405.883148 
	C302.423126,410.601013 302.922607,413.161682 299.958893,419.367218 
	C297.898651,423.681061 295.740051,427.947906 293.625427,432.235748 
	C299.154907,427.301361 301.155396,420.320740 304.592438,414.198151 
	C311.236115,402.363586 310.374847,389.163635 310.836761,376.279022 
	C311.069580,369.784363 310.085602,363.353516 308.089203,357.084167 
	C307.045227,353.805756 305.506927,351.660065 301.912628,350.742981 
	C297.393555,349.590027 294.492554,346.299072 293.385040,341.764191 
	C292.184174,336.847015 292.566284,331.644592 289.942688,326.806641 
	C299.756348,326.689758 310.130463,336.621643 308.619659,344.411987 
	C304.515808,341.778046 303.910797,335.295044 297.747040,334.761993 
	C298.641602,338.337158 298.442322,341.733673 300.411591,344.474701 
	C302.295105,344.798737 301.587921,341.852051 303.885712,342.589050 
	C304.371735,343.133392 305.281647,343.892456 305.868835,344.849457 
	C313.853790,357.863892 315.165436,372.284546 314.818146,387.090973 
	C314.618774,395.591248 311.481049,403.740234 312.084991,412.336273 
	C312.462952,417.715668 313.635010,419.000549 318.848999,418.781342 
	C331.852753,418.234711 341.953827,428.775452 340.355682,441.224152 
	C339.204681,450.189728 332.440918,456.086517 324.528534,455.022583 
	C318.284882,454.183044 315.229492,457.393585 316.495239,463.791260 
	C317.020203,466.444763 316.883667,468.193756 313.993042,469.328888 
	C311.783203,470.196716 310.164612,471.995758 309.217224,475.308228 
	C311.157196,474.064819 312.255676,473.340607 313.373474,472.647644 
	C319.148376,469.067688 324.206207,471.422333 324.887939,478.179352 
	C325.186432,481.138000 326.362457,483.174774 329.022064,484.482910 
	C331.300018,485.603333 333.057495,487.420868 334.735413,489.278503 
	C336.151428,490.846161 337.030609,492.390045 335.403107,494.559814 
	C332.614441,498.277832 334.972626,500.889771 337.539246,503.541992 
	C339.573883,502.236572 341.355255,501.041199 343.186859,499.928497 
	C348.266205,496.842804 353.357208,497.337799 357.494843,501.227081 
	C362.315552,505.758362 366.849640,510.697937 370.865021,515.951843 
	C374.424957,520.609802 378.125061,524.895508 382.657410,528.698059 
	C391.191284,535.857849 399.072571,543.640564 396.965668,556.484680 
	C396.682007,558.213928 397.131470,560.155762 397.615692,561.894897 
	C398.199066,563.989990 399.156647,566.402222 401.714111,566.309143 
	C404.558014,566.205627 404.549896,563.444824 404.884003,561.374634 
	C405.478058,557.693909 404.574280,554.092834 404.162201,550.454407 
	C403.869263,547.867554 403.384125,544.615906 406.154846,543.226074 
	C408.924194,541.836975 410.446625,545.070496 412.465607,546.303833 
	C414.584625,547.598267 414.352814,549.662048 413.375092,551.612488 
	C412.445923,553.466003 412.154144,555.335632 412.389648,557.410156 
	C413.035400,563.097534 412.673859,568.791260 414.149231,574.522888 
	C415.635773,580.297913 417.118927,582.394775 423.281921,582.079651 
	C428.294586,581.823364 430.565277,583.748596 429.725433,588.417725 
	C428.102753,597.439148 431.857788,603.945801 438.629395,609.198730 
	C445.177429,614.278259 452.990509,618.092957 457.012360,625.762695 
	C459.568756,630.637878 463.601532,632.648560 468.440399,633.595642 
	C471.002930,634.097229 472.342010,635.502014 473.855621,637.446350 
	C478.400330,643.284546 479.850189,650.788391 484.708679,656.477905 
	C495.631195,669.268677 510.211426,677.163940 523.898560,686.254211 
	C526.911438,688.255127 529.877930,687.708984 532.351196,684.819153 
	C533.549133,683.419312 535.152527,681.988403 537.107117,683.200989 
	C539.612671,684.755249 543.437317,686.371765 543.145935,689.339783 
	C542.225769,698.712891 549.318298,700.706238 556.028625,704.977173 
	C557.400330,693.986511 566.306152,690.155762 574.671692,684.230042 
	C563.942078,679.312561 553.671570,676.910522 544.567688,671.896973 
	C535.258911,666.770569 527.539612,659.861755 521.761475,650.892883 
	C527.945190,654.336792 532.066345,660.556763 538.745911,663.175781 
	C543.319153,656.755371 549.354126,655.235107 553.079529,661.315186 
	C554.011658,662.836548 554.209106,664.384277 554.250366,666.069153 
	C554.315735,668.739441 555.463562,671.281311 557.611328,672.460510 
	C563.078186,675.461914 569.130798,676.941162 576.106018,678.340393 
	C570.635925,670.569519 572.117004,663.915222 577.742432,656.537415 
	C578.632141,657.918823 579.009216,658.954041 579.740112,659.567932 
	C585.420410,664.339050 588.790344,669.687805 585.439270,677.436646 
	C584.476440,679.663025 586.179077,681.678894 587.887634,683.040955 
	C589.825806,684.586304 591.982422,685.902161 594.171631,687.080688 
	C606.856018,693.908386 616.092163,703.858459 621.207764,717.353333 
	C624.591125,726.278931 627.740234,735.710693 625.646851,745.120300 
	C623.965820,752.676331 622.921448,760.508240 620.005676,767.805542 
	C619.579590,768.871765 619.330078,770.039795 619.196838,771.183777 
	C619.033508,772.585632 619.543213,773.864990 620.698975,774.700623 
	C622.151794,775.751221 623.291504,774.673645 624.188538,773.772644 
	C627.548340,770.398071 631.848083,768.505920 635.998047,766.023499 
	C635.998047,766.023499 636.148621,765.908936 636.971985,765.859802 
	C638.602722,765.530090 640.223022,765.130798 641.866089,764.882812 
	C648.734985,763.846436 656.747498,767.383545 660.071899,772.873291 
	C663.436523,778.429443 663.069092,786.049927 659.045166,791.211243 
	C656.405823,794.596741 652.824707,796.317139 648.548218,795.676086 
	C645.079224,795.156128 642.324646,793.228149 641.109680,789.741760 
	C640.361572,787.595032 640.326904,785.355469 642.328979,783.805786 
	C643.829346,782.644409 645.566711,781.917480 647.002991,784.050171 
	C644.697632,788.729004 645.218872,790.408997 649.238403,791.401672 
	C653.946960,792.564575 655.944885,790.849487 657.261047,784.514893 
	C658.609619,778.024414 654.601929,772.123535 647.373169,769.955933 
	C640.667908,767.945312 635.013306,770.620117 632.700623,777.037537 
	C630.951172,781.891907 629.413147,786.822083 627.693909,791.687805 
	C627.128296,793.288391 627.030579,795.268555 624.649109,796.453369 
	C624.190430,789.443237 628.124817,783.773315 628.699097,777.170471 
	C619.844666,782.766602 615.982178,792.508484 619.323059,801.022522 
	C620.277100,803.453796 618.681091,807.230957 621.646362,808.212463 
	C625.291748,809.419006 624.337708,803.673523 627.418640,803.233459 
	C629.260742,803.735229 627.188599,806.824768 629.866760,806.844360 
	C631.519104,805.514832 631.071899,803.731628 630.230591,802.389832 
	C629.003906,800.433350 629.865234,798.963257 630.587463,797.272766 
	C631.182129,795.880859 631.915283,794.891602 633.555908,795.474182 
	C634.903015,795.952576 635.272522,797.153748 634.785828,798.334290 
	C633.827332,800.659058 634.695190,802.919861 634.657104,805.200928 
	C634.592102,809.093201 633.502319,812.661804 629.678406,814.836487 
	C626.471008,816.660645 623.811279,820.178955 623.641235,823.093079 
	C623.298584,828.963745 624.629211,835.027588 629.999573,838.994019 
M243.895721,330.845367 
	C244.909271,336.070129 245.896637,341.300110 246.940704,346.518768 
	C253.012848,376.869354 257.269806,407.507660 261.218353,438.184021 
	C264.571777,464.236786 266.902863,490.425903 271.419739,516.320862 
	C272.649719,523.372498 275.059540,530.157349 278.330292,536.577148 
	C279.100220,538.088318 279.962982,539.708008 282.114716,538.805969 
	C284.546051,537.786743 283.285980,536.137939 282.675995,534.646057 
	C281.670258,532.186340 280.446564,529.795288 279.668732,527.266418 
	C275.445740,513.536255 274.405426,499.276825 272.577759,485.123749 
	C267.891022,448.830780 263.469635,412.493408 257.517273,376.379425 
	C252.375397,345.182587 245.826752,314.258240 237.142670,283.845642 
	C226.802887,247.634598 213.962402,212.308380 198.016342,178.164200 
	C194.692230,171.046494 191.716293,163.684647 186.566269,157.469467 
	C211.047409,213.219528 230.731400,270.515289 243.895721,330.845367 
M617.590515,725.927490 
	C614.808167,716.708191 610.497070,708.289856 603.724487,701.391113 
	C596.211426,693.738098 587.497437,688.723145 576.151123,690.167236 
	C566.998047,691.332214 560.820984,698.596985 561.430054,707.780273 
	C561.908081,714.987488 568.266235,720.667603 574.762268,719.675476 
	C577.514282,719.255066 579.429810,717.801270 579.774231,714.941895 
	C580.079163,712.410217 578.540649,711.369629 576.182678,711.201355 
	C574.469788,711.079163 573.283264,710.189941 573.335693,708.390930 
	C573.383606,706.747253 574.436157,705.524292 575.969482,705.079529 
	C579.589355,704.029602 582.669800,704.835449 584.303955,708.498779 
	C586.329346,713.039246 584.694031,716.893433 581.644775,720.382080 
	C580.475037,721.720337 578.466187,722.277649 577.644531,725.494690 
	C586.241272,729.954102 589.489258,740.049805 597.167725,747.151611 
	C599.955444,740.987488 595.996216,736.773132 595.326904,732.373413 
	C597.056824,730.534241 598.896973,730.717590 600.709595,731.051941 
	C607.048035,732.220886 610.828186,736.250183 613.237549,742.020020 
	C615.378479,747.147095 616.156677,752.673950 618.436035,757.911194 
	C620.152527,747.422485 620.919434,737.045593 617.590515,725.927490 
M567.396240,757.082153 
	C558.139587,741.474304 545.466797,728.555969 533.254578,715.459412 
	C514.874023,695.747681 495.150635,677.318787 473.758972,660.797302 
	C467.296356,655.806030 462.164948,649.839783 459.580627,641.929504 
	C458.879913,639.784607 457.864838,637.796509 455.521606,635.977478 
	C456.360870,641.693420 460.714020,645.434937 461.184418,651.950806 
	C451.114197,645.840881 442.889679,638.647583 432.276459,633.092773 
	C433.992767,636.206970 435.725433,637.519592 437.674805,638.816711 
	C448.886871,646.277161 460.235901,653.558899 471.130554,661.463501 
	C494.147339,678.163452 513.175415,699.284668 533.613892,718.827820 
	C548.124023,732.702332 560.067322,748.641418 570.531128,765.796448 
	C578.050659,778.124390 582.860229,791.573730 588.249695,804.800964 
	C597.248535,826.886780 606.372314,848.835938 625.135437,864.960083 
	C628.745483,868.062439 629.579346,868.774963 633.397705,868.047180 
	C623.679993,859.660583 614.111145,850.717957 607.660645,839.737427 
	C599.942017,826.598328 593.906250,812.392456 587.998779,798.289612 
	C582.132568,784.285339 576.177429,770.406250 567.396240,757.082153 
M329.130341,450.721558 
	C335.826752,448.834564 336.013916,448.510162 335.766144,439.220856 
	C335.586060,432.469116 331.777222,427.040680 325.525848,424.635101 
	C318.793945,422.044617 312.675598,423.508820 307.307159,427.906982 
	C304.050995,430.574615 303.518494,437.258240 306.049042,440.322540 
	C309.227753,444.171753 312.372803,443.207977 315.961365,440.424377 
	C319.804291,437.443420 322.395935,438.584717 324.561859,443.495636 
	C323.766449,445.123566 321.344269,444.493347 320.537140,446.544067 
	C321.615784,450.516907 324.936432,450.688751 329.130341,450.721558 
M818.559326,711.467712 
	C818.268555,713.301086 816.828918,713.584167 815.356445,714.079102 
	C810.196838,715.813538 808.808411,718.412292 811.226990,723.067688 
	C815.433777,731.164917 820.307434,738.891602 825.649292,746.303406 
	C826.507935,747.494873 827.437500,748.892029 829.256653,748.362549 
	C830.931274,747.875183 831.674683,746.340271 831.602478,744.875793 
	C831.331116,739.370422 835.049316,732.984924 828.103577,728.823181 
	C827.065430,728.201050 825.897522,726.691956 826.921448,724.908630 
	C829.085999,724.320435 830.121399,728.001953 832.976929,726.290771 
	C827.525879,717.717712 821.541199,709.769592 814.956177,702.185608 
	C815.973267,705.144592 817.810425,707.719910 818.559326,711.467712 
M593.882935,843.611816 
	C586.387817,835.722778 579.761169,826.969604 571.040649,819.924988 
	C569.449402,822.643494 569.702698,825.016541 570.763184,827.046143 
	C572.059570,829.527344 574.223694,831.562988 575.466370,834.062866 
	C578.833740,840.837280 583.860962,845.923706 590.582397,849.168701 
	C592.808960,850.243652 595.291809,854.330811 597.761475,851.036072 
	C599.893005,848.192444 595.480713,846.523865 593.882935,843.611816 
M178.152786,114.457039 
	C180.750961,108.567413 180.064194,104.987389 175.399307,102.495064 
	C170.739151,100.005272 168.114609,103.866005 165.208679,106.374443 
	C163.789536,107.599464 163.452652,109.520493 162.803085,111.227554 
	C161.422394,114.855965 163.238831,117.400536 165.766724,119.469414 
	C168.250473,121.502151 170.883942,120.198486 173.164551,118.861084 
	C174.848969,117.873283 176.221420,116.353546 178.152786,114.457039 
M607.876953,770.353210 
	C609.081360,771.360413 609.743896,773.221130 611.805420,772.898804 
	C616.026306,760.092285 614.461365,748.887756 604.088379,750.403076 
	C604.136292,757.005066 603.550232,763.701050 607.876953,770.353210 
M590.504578,366.535034 
	C601.134766,370.702667 603.778198,379.671875 597.452698,390.110016 
	C601.883484,388.080933 603.440796,384.140991 602.135132,378.263489 
	C600.240112,369.732544 594.366699,364.922363 585.913086,364.977997 
	C578.156067,365.029053 571.242493,370.288177 569.803833,377.537506 
	C574.539917,369.989716 579.953247,364.164917 590.504578,366.535034 
M532.927856,302.357147 
	C530.055969,302.339874 526.945190,301.461395 524.819031,304.383423 
	C529.859558,312.191284 533.964478,314.630981 536.990906,311.544373 
	C534.835388,309.396149 530.270630,310.187225 529.607178,305.755890 
	C532.829773,304.359924 535.898254,307.224426 539.117188,305.647247 
	C537.926270,303.254333 535.610535,303.198090 532.927856,302.357147 
M797.767456,743.443787 
	C797.102722,738.402344 797.056274,733.235291 795.134949,727.846558 
	C791.749146,735.950745 798.477234,743.172363 795.327881,750.876526 
	C796.509094,751.223511 797.526489,752.682983 799.386963,752.454224 
	C798.817139,749.485107 798.320557,746.897339 797.767456,743.443787 
M563.905457,462.874298 
	C566.356201,464.129913 568.792053,464.275909 571.542786,462.955536 
	C569.480530,460.859283 563.075867,462.914734 566.395447,456.922089 
	C561.727356,455.923035 561.727356,455.923035 558.975220,458.748871 
	C559.831665,460.617950 561.483643,461.644409 563.905457,462.874298 
M366.746246,567.180481 
	C364.707947,565.269531 363.879364,566.562134 363.517609,568.505249 
	C363.115601,570.664429 363.568420,572.709656 364.883392,574.650085 
	C366.052460,574.015991 366.463684,572.150635 368.419342,572.931458 
	C369.707428,573.445862 370.537476,575.051514 372.368286,574.632507 
	C371.641998,571.481140 369.310913,569.633240 366.746246,567.180481 
M559.338379,304.709351 
	C555.401062,307.855011 555.357971,309.341156 559.031433,316.618713 
	C560.617310,315.500732 561.339111,313.945129 561.570740,312.086151 
	C561.899597,309.446198 558.894348,307.874359 559.338379,304.709351 
M617.757202,486.950348 
	C614.753418,480.096252 609.109375,475.503448 603.969666,470.475800 
	C607.975525,476.311310 611.813232,482.278381 617.757202,486.950348 
M406.560822,575.454041 
	C404.058411,580.161438 404.589783,581.764099 409.557800,584.376404 
	C410.377960,582.296997 409.789551,580.166626 409.818604,578.071045 
	C409.842529,576.342102 409.763641,574.606506 406.560822,575.454041 
M778.652405,725.066711 
	C778.415771,727.008911 779.338318,727.778381 781.219177,727.711731 
	C782.538940,727.664917 783.451233,727.229980 783.634644,725.799011 
	C784.146790,721.802063 781.227478,720.494751 778.075745,718.824524 
	C778.286926,720.882446 778.467102,722.638000 778.652405,725.066711 
M408.213623,307.178894 
	C407.048492,311.548889 411.211426,310.481812 413.027679,312.467133 
	C414.050995,309.942108 415.073944,307.779022 413.202911,306.053619 
	C411.830566,304.788055 409.844543,304.748566 408.213623,307.178894 
M555.400513,774.522705 
	C554.427063,774.310791 553.875916,772.667603 552.635925,773.537109 
	C552.503540,778.990051 556.309998,779.808289 560.648865,781.285522 
	C559.874023,777.729309 558.144836,776.103516 555.400513,774.522705 
M547.376953,662.218567 
	C543.607544,660.001770 543.353577,662.894226 542.552429,665.366516 
	C544.284119,666.750916 545.970764,668.175171 547.948730,666.762695 
	C549.416138,665.714783 548.723450,664.066284 547.376953,662.218567 
M770.202148,702.396484 
	C768.009277,700.502625 767.078613,701.696960 767.465454,703.862000 
	C768.038818,707.070923 769.135376,710.186401 770.009216,713.341614 
	C770.812378,709.847107 769.280334,706.439270 770.202148,702.396484 
M771.065125,722.263611 
	C770.980103,721.289001 770.895081,720.314331 770.810120,719.339722 
	C769.850952,723.829041 769.343201,728.339111 768.904724,732.855835 
	C768.870789,733.204895 769.322388,733.601135 769.866150,734.502136 
	C771.379944,730.434875 770.755615,726.688232 771.065125,722.263611 
M292.488251,414.809998 
	C293.120911,411.819214 291.545624,410.479523 288.433685,409.537079 
	C288.864258,412.356323 287.900146,415.321014 292.488251,414.809998 
M605.965088,737.567200 
	C604.959106,736.945862 604.300720,735.361328 602.675781,736.302368 
	C602.838379,739.697571 604.217041,741.619751 607.849854,741.177673 
	C608.109436,739.647766 607.048950,738.931946 605.965088,737.567200 
M592.572693,473.117645 
	C591.709900,472.911987 590.955444,472.963959 590.467590,474.266632 
	C593.798523,475.224976 597.101501,476.175262 600.404419,477.125580 
	C600.468994,476.957367 600.533508,476.789185 600.598022,476.621002 
	C598.106323,475.520020 595.614685,474.419067 592.572693,473.117645 
z"/>
<path fill="#000000" opacity="1.000000" stroke="none" 
	d="
M506.776947,571.205444 
	C522.853394,591.907043 545.889954,597.731812 566.653870,586.621155 
	C574.960266,582.176453 580.445007,575.298523 584.275146,566.862488 
	C585.116821,565.008545 585.267761,562.542236 587.816895,561.727173 
	C590.033447,562.708801 589.627625,564.678040 589.584839,566.429810 
	C588.739014,601.084045 566.199036,627.374878 531.984131,631.856445 
	C508.896301,634.880554 488.849518,627.288574 473.215027,609.662964 
	C445.927795,578.900757 446.073456,533.979370 473.312469,505.047241 
	C489.019501,488.363953 509.175079,482.129120 532.055725,485.711212 
	C533.036316,485.864746 534.007629,486.129028 534.955383,486.429504 
	C536.281799,486.849945 537.499756,487.489746 537.412598,489.144928 
	C537.320496,490.893280 535.921204,491.048065 534.581909,491.360382 
	C526.822876,493.169983 519.796143,496.481415 513.899292,501.912354 
	C494.323120,519.941895 491.311096,548.416809 506.776947,571.205444 
M475.190582,605.265564 
	C502.991150,637.674866 550.320740,634.168884 573.332642,602.020691 
	C577.967651,595.545410 581.581604,588.538086 582.825073,580.149048 
	C579.391235,580.820190 577.894348,583.172302 576.015991,584.959900 
	C566.652161,593.871094 555.209106,597.921875 542.655090,596.958740 
	C502.386230,593.869202 478.606323,546.269165 499.701141,511.759277 
	C505.268494,502.651367 513.026855,495.890594 522.706055,490.033569 
	C514.577515,488.367249 507.986603,490.775208 501.305725,492.759003 
	C470.547546,501.891815 454.855225,536.548401 457.641388,563.197510 
	C459.269470,578.770020 466.205933,592.042847 475.190582,605.265564 
z"/>
<path fill="#000000" opacity="1.000000" stroke="none" 
	d="
M635.924805,766.083374 
	C632.579956,765.133484 634.296814,762.933777 634.877380,761.293274 
	C643.480347,736.980652 645.115051,711.933350 642.932434,686.467224 
	C641.792297,673.164734 639.309265,660.112793 635.650452,647.278992 
	C633.579468,640.014648 631.007935,633.212769 621.816772,632.933716 
	C622.031677,630.504578 624.262451,630.307678 625.111267,628.581482 
	C625.699951,626.932190 623.285339,626.561646 623.141907,625.028992 
	C623.265137,624.786011 623.382446,624.279541 623.551697,624.261536 
	C627.831116,623.806763 627.848083,621.276733 627.108765,617.840332 
	C625.107483,608.538940 622.136230,599.533142 619.257629,590.492859 
	C618.777954,588.986572 617.805542,587.520325 618.511780,585.706665 
	C621.052856,586.243835 620.994080,588.374084 621.555725,589.961243 
	C624.554443,598.435913 627.386353,606.970398 630.449341,615.421387 
	C632.804932,621.920898 633.967468,622.514587 640.813843,621.470276 
	C640.429260,625.628296 638.229309,630.199097 643.944702,633.347839 
	C637.117371,632.657959 637.291077,635.778687 638.122742,640.283020 
	C641.051575,656.145813 643.609375,672.077087 646.313477,687.981445 
	C649.264038,705.335144 647.160095,722.444824 643.741028,739.471375 
	C641.974976,748.265686 640.463379,757.148132 636.340027,765.627686 
	C636.148621,765.908936 635.998047,766.023499 635.924805,766.083374 
M635.533997,627.683533 
	C634.847290,626.018311 633.504883,625.316589 631.845886,625.076599 
	C628.633118,628.784790 631.351440,629.882751 634.349243,631.225403 
	C634.819275,630.075134 635.181030,629.189819 635.533997,627.683533 
z"/>
<path fill="#000000" opacity="1.000000" stroke="none" 
	d="
M747.034546,764.954346 
	C752.005066,764.971008 755.902222,764.181702 755.997253,758.386475 
	C756.011292,757.525696 756.489258,756.753662 757.391541,756.521912 
	C758.292297,756.290527 758.892517,756.813538 759.480713,757.495972 
	C767.477600,766.775513 773.694702,777.252258 779.877808,787.751526 
	C780.374878,788.595581 780.902832,789.488037 780.301086,791.100037 
	C777.647400,790.043457 774.891663,789.170166 772.339661,787.890442 
	C762.634521,783.023804 751.411072,780.917480 743.772217,772.269531 
	C742.463806,770.788330 740.647522,769.451660 741.503052,767.142578 
	C742.383240,764.767090 744.640625,765.086243 747.034546,764.954346 
z"/>
<path fill="#000000" opacity="1.000000" stroke="none" 
	d="
M630.009888,839.003418 
	C628.949341,834.982544 626.087952,831.681946 625.351562,827.509644 
	C625.066040,825.892090 624.265747,824.091797 625.952026,822.928162 
	C627.455261,821.890930 628.887146,823.070984 629.997559,823.974304 
	C632.384094,825.915588 633.989746,825.076965 636.518494,823.656738 
	C640.756104,821.276978 645.528992,819.506348 650.292236,818.487549 
	C657.393494,816.968628 665.300354,825.450684 664.002258,832.604370 
	C663.760620,833.936218 663.403320,835.223022 661.732056,835.570618 
	C659.421692,834.815735 660.038147,832.659302 659.618958,831.016113 
	C658.199646,825.452881 654.133972,822.162048 649.827209,823.159607 
	C647.588623,823.678162 645.805969,824.861938 647.334412,827.310608 
	C650.338013,832.122681 647.904724,834.171997 643.650146,835.621704 
	C643.268005,835.751953 643.046082,836.352417 642.693665,836.806885 
	C645.150757,842.596313 650.457092,841.557739 655.883362,841.107483 
	C650.587891,847.620850 642.685669,848.168884 635.631104,843.350647 
	C633.853516,842.136597 632.252869,840.663574 630.277588,839.139832 
	C629.984192,838.970093 629.999573,838.994019 630.009888,839.003418 
z"/>
<path fill="#000000" opacity="1.000000" stroke="none" 
	d="
M386.054688,476.971252 
	C384.900970,474.692780 382.792877,473.221924 382.893127,470.200775 
	C385.824768,471.368408 386.656311,473.885590 388.170624,475.702667 
	C389.659882,477.489746 390.975830,479.420166 392.397034,481.265167 
	C396.791321,486.969727 400.740234,493.714355 410.348572,488.396088 
	C407.371613,493.218414 404.582092,497.549805 407.154297,502.782593 
	C409.399841,507.350891 411.824463,511.831177 414.297699,516.596375 
	C412.087524,517.103210 411.618713,515.575745 410.856262,514.703552 
	C408.888031,512.452271 407.056671,510.081848 405.106659,507.814056 
	C401.165924,503.231110 397.189178,498.666382 390.563019,503.327850 
	C389.234985,501.040985 390.838593,500.317932 391.538086,499.411743 
	C394.040771,496.169647 394.240601,492.720612 392.510651,489.187408 
	C390.538269,485.159180 388.346466,481.238403 386.054688,476.971252 
z"/>
<path fill="#000000" opacity="1.000000" stroke="none" 
	d="
M678.633667,608.410034 
	C687.168823,622.447449 693.871765,636.970276 700.143188,651.726074 
	C686.794556,635.672363 677.947327,617.144531 669.227417,597.362488 
	C674.324524,600.105469 676.355835,604.125000 678.633667,608.410034 
z"/>
<path fill="#000000" opacity="1.000000" stroke="none" 
	d="
M624.983765,514.994873 
	C626.552673,518.086365 628.186401,521.168091 629.701660,524.306946 
	C630.620850,526.210938 631.731689,528.165955 630.431396,530.319397 
	C629.353638,530.557861 628.670166,529.949829 628.178223,529.339233 
	C622.960693,522.862915 617.458252,516.707581 610.916748,511.468933 
	C608.863708,509.824799 607.117493,507.201385 609.420654,502.914673 
	C612.667725,509.771393 619.806030,510.415619 624.722046,514.882690 
	C625.023132,515.042542 624.998596,515.009216 624.983765,514.994873 
z"/>
<path fill="#000000" opacity="1.000000" stroke="none" 
	d="
M645.325073,558.682007 
	C643.593323,555.613892 641.935486,552.922729 640.521667,550.108948 
	C639.782410,548.637817 638.031128,546.666199 640.608521,545.478149 
	C642.491211,544.610352 643.659180,546.330505 644.338257,547.889465 
	C646.337341,552.479248 649.575684,556.412537 651.676880,560.826172 
	C654.177307,566.078552 657.210144,570.964233 659.972412,576.031006 
	C660.489075,576.978760 661.354309,577.982361 660.308289,579.847107 
	C652.122131,575.085144 649.871521,566.253784 645.325073,558.682007 
z"/>
<path fill="#000000" opacity="1.000000" stroke="none" 
	d="
M600.037048,534.056396 
	C603.304443,535.613342 605.230042,537.487976 604.219238,541.167236 
	C603.602844,543.410645 605.580811,545.594971 604.377075,548.759705 
	C601.512085,544.651184 597.147705,543.381287 593.047058,540.772278 
	C596.810059,538.034302 595.449585,534.136292 595.858704,530.653015 
	C598.136414,530.895081 598.419678,532.984558 600.037048,534.056396 
z"/>
<path fill="#000000" opacity="1.000000" stroke="none" 
	d="
M522.024536,446.793854 
	C518.583618,447.046967 517.281677,442.179871 513.326599,443.630402 
	C512.945374,443.770203 512.531006,442.326050 512.772156,441.487152 
	C513.170044,440.103119 514.151733,439.302643 515.510132,438.907166 
	C519.612976,437.712769 522.317139,440.786530 522.024536,446.793854 
z"/>
<path fill="#000000" opacity="1.000000" stroke="none" 
	d="
M705.607239,663.961182 
	C702.899414,661.484253 700.810242,659.036804 701.710449,654.586365 
	C705.123901,656.811890 706.794617,659.717468 707.952209,662.819092 
	C708.562012,664.452637 707.245422,664.731201 705.607239,663.961182 
z"/>
<path fill="#000000" opacity="1.000000" stroke="none" 
	d="
M663.587585,734.284668 
	C661.263733,732.800415 660.885437,731.057251 662.194763,729.059998 
	C662.924683,727.946350 664.121887,727.813171 665.293884,728.246155 
	C666.814209,728.807861 667.878296,729.922913 667.699890,731.598572 
	C667.470459,733.753723 666.149414,734.785767 663.587585,734.284668 
z"/>
<path fill="#000000" opacity="1.000000" stroke="none" 
	d="
M667.677856,590.496460 
	C666.978333,590.973816 665.988098,591.421143 665.884949,591.268555 
	C663.962708,588.426697 662.146912,585.513000 661.947632,581.883667 
	C664.761414,584.087280 666.791870,586.776672 667.677856,590.496460 
z"/>
<path fill="#000000" opacity="1.000000" stroke="none" 
	d="
M543.022217,402.382538 
	C543.480713,404.109741 544.204712,405.514771 543.220032,407.171631 
	C540.932190,406.952423 539.339355,406.004089 539.209106,403.634644 
	C539.138611,402.351868 539.390442,400.773468 540.858582,400.306732 
	C542.064575,399.923340 542.424744,401.225952 543.022217,402.382538 
z"/>
<path fill="#000000" opacity="1.000000" stroke="none" 
	d="
M378.425171,309.513062 
	C381.229919,309.624329 382.583588,310.846893 381.697083,313.341858 
	C381.138916,314.912781 379.537628,315.759399 378.054016,314.738922 
	C375.838226,313.214844 375.554016,311.308228 378.425171,309.513062 
z"/>
<path fill="#000000" opacity="1.000000" stroke="none" 
	d="
M585.797729,497.284790 
	C584.645386,494.343201 586.302979,493.888306 588.353943,494.052032 
	C589.587463,494.150513 590.801086,495.014343 590.492615,496.284943 
	C589.840759,498.969971 587.794678,497.879181 585.797729,497.284790 
z"/>
<path fill="#000000" opacity="1.000000" stroke="none" 
	d="
M422.757690,283.994202 
	C420.014832,283.593201 419.444977,282.229065 420.679810,280.236176 
	C421.361389,279.136108 422.574738,278.829956 423.612457,279.681732 
	C425.517548,281.245453 424.986816,282.699036 422.757690,283.994202 
z"/>
<path fill="#000000" opacity="1.000000" stroke="none" 
	d="
M402.178833,338.668701 
	C401.045563,339.738342 399.946106,339.863190 399.541077,338.686554 
	C398.739227,336.357208 399.783630,334.590302 401.947998,333.175507 
	C403.982910,334.816345 403.390503,336.570343 402.178833,338.668701 
z"/>
<path fill="#000000" opacity="1.000000" stroke="none" 
	d="
M597.925659,717.001465 
	C596.330078,716.256531 593.559631,716.551331 595.121155,713.968994 
	C596.162292,712.247192 597.701843,713.224792 598.778076,714.492676 
	C600.135803,716.092285 603.335754,715.845398 603.436829,718.874695 
	C600.724121,720.614136 600.045471,717.337952 597.925659,717.001465 
z"/>
<path fill="#000000" opacity="1.000000" stroke="none" 
	d="
M473.620483,587.937866 
	C474.268524,590.339661 474.777679,592.465027 477.788330,594.360107 
	C476.877563,587.114624 479.307983,580.917969 479.696198,574.426270 
	C479.761292,573.337952 479.386688,572.097046 478.848724,571.130676 
	C478.163452,569.899719 476.948090,569.101562 475.510620,570.054749 
	C474.073059,571.008057 474.194794,572.243958 475.346924,573.401062 
	C475.923279,573.979858 476.699829,574.405029 476.611694,575.396851 
	C473.211121,578.200989 470.893402,577.613647 469.884552,573.688477 
	C468.815369,569.528442 471.022919,565.726013 475.026886,564.830994 
	C479.083221,563.924316 483.219208,566.747742 484.243164,571.258301 
	C485.284576,575.845886 483.858032,580.140747 482.526398,584.455261 
	C481.463104,587.900391 480.227966,591.424561 483.609955,595.814758 
	C485.764648,588.831177 490.443573,585.458557 496.454987,583.317871 
	C498.702911,582.517517 497.906006,577.909363 495.294250,576.176819 
	C494.102783,575.386475 492.615540,575.041992 490.999695,574.389099 
	C492.449310,569.938049 490.651062,567.001892 487.551880,563.825867 
	C484.790039,560.995605 484.995483,556.812744 487.081146,553.090332 
	C489.984009,553.385193 490.076599,555.713257 490.701843,557.453247 
	C494.464752,567.924866 499.948883,577.290833 507.954376,585.120850 
	C514.113953,591.145264 521.327576,595.517700 529.487549,598.008911 
	C534.316711,599.483154 535.692505,602.579163 535.557312,606.935303 
	C535.446777,610.494385 533.233887,611.565063 529.352539,609.995667 
	C529.160767,607.987793 532.786865,606.299316 530.047974,603.944946 
	C528.492798,602.608154 527.083435,601.109253 524.814636,602.342957 
	C522.309509,603.705017 520.351135,609.714050 521.933533,612.122681 
	C524.215576,615.596436 527.372864,618.360596 531.825989,617.623657 
	C536.712585,616.815125 540.823730,613.375427 546.769775,613.677612 
	C543.880676,609.409241 541.616272,606.063721 539.250122,602.567993 
	C541.431946,600.726013 542.773315,602.014893 544.069397,603.291077 
	C545.926880,605.120056 547.909729,605.457703 549.695496,603.414307 
	C552.162537,600.591309 555.412231,599.597595 558.868713,598.810791 
	C564.635376,597.498169 569.181885,593.732849 573.980530,590.607117 
	C575.501221,592.359802 574.279907,593.439758 573.665894,594.449402 
	C566.057800,606.959534 555.471130,615.550903 540.954468,618.674255 
	C536.239868,619.688721 531.769470,621.438354 527.015076,622.422119 
	C516.476562,624.602600 507.190918,620.508850 498.258179,616.715210 
	C484.073486,610.691101 472.258545,600.759521 467.626617,585.671753 
	C463.915497,573.583496 457.638550,561.436279 461.674988,547.938416 
	C462.053467,546.672791 462.104279,545.284485 464.530548,543.930359 
	C467.192322,550.054138 464.932831,557.864258 471.181061,562.388489 
	C466.219177,564.390991 464.961517,567.627930 466.834381,573.132690 
	C467.951355,576.415771 469.221588,579.739197 471.889648,582.206360 
	C473.492126,583.688232 474.195587,585.424500 473.620483,587.937866 
M498.044739,597.242004 
	C503.106018,595.393311 503.653748,593.724976 500.298126,590.286499 
	C497.669434,587.592896 494.889130,587.193054 492.001923,589.885071 
	C488.802429,592.868286 488.192688,596.922668 490.922882,599.454224 
	C492.418610,600.841187 493.056458,602.253052 493.266174,604.150452 
	C493.902802,609.909973 497.646606,612.921997 504.208954,612.957092 
	C505.241302,609.661133 500.518463,606.914612 503.439362,602.465942 
	C508.433167,608.428162 510.232819,617.179382 519.129578,618.462708 
	C519.867004,615.889404 517.981079,614.721802 517.339111,613.096008 
	C516.413452,610.751892 515.100647,608.392090 516.399292,605.929749 
	C518.761963,601.450012 518.937378,597.940186 513.220093,596.127563 
	C511.862732,595.697266 511.279510,594.380066 510.934845,593.037720 
	C510.437622,591.101379 509.469727,589.723511 506.553162,589.838440 
	C506.786224,592.932983 506.968933,596.112610 504.869019,598.735779 
	C502.288361,601.959473 500.221832,601.744812 498.044739,597.242004 
M558.960571,606.468384 
	C560.106812,605.449219 562.114258,605.201660 562.065613,603.076782 
	C555.037964,601.332092 550.448303,604.499512 551.964294,610.139099 
	C554.644409,610.125488 556.294556,608.053589 558.960571,606.468384 
z"/>
<path fill="#000000" opacity="1.000000" stroke="none" 
	d="
M478.803345,556.311768 
	C476.545166,556.466064 476.179199,556.339661 476.858398,554.373230 
	C477.755463,551.775879 476.592377,550.868042 474.608795,549.761963 
	C466.710571,545.357727 463.574768,537.096985 467.199371,528.863708 
	C475.074341,510.975830 488.939209,499.871704 507.540680,494.440460 
	C508.006409,494.304504 508.520996,494.314575 509.013641,494.306122 
	C509.147003,494.303833 509.283508,494.483307 510.308380,495.212311 
	C502.488708,502.300781 490.384949,503.152557 484.751526,512.969543 
	C486.101654,514.387512 487.524872,515.548523 488.522675,517.001587 
	C490.448822,519.806519 490.629333,522.873291 487.710480,525.000671 
	C482.826569,528.560181 484.328125,533.770203 485.678070,537.405334 
	C487.811096,543.149170 486.290222,547.018616 482.682373,550.949646 
	C481.252289,552.507874 479.098297,553.523926 478.803345,556.311768 
M476.027161,521.168823 
	C473.449249,524.152466 472.406982,527.835083 471.298431,531.494873 
	C469.974915,535.864319 470.322479,540.056152 472.666626,543.993591 
	C474.011902,546.253174 476.104767,547.217590 478.633331,546.399353 
	C481.128448,545.591980 482.574738,543.977661 481.322174,540.822388 
	C479.591675,540.233337 476.666687,541.555603 476.032562,538.611389 
	C475.456879,535.938721 478.120331,535.622742 479.526031,534.378967 
	C481.936127,532.246582 482.627502,529.605835 480.936005,526.790710 
	C479.688782,524.715027 478.042145,522.879395 476.027161,521.168823 
z"/>
</svg>